<svg xmlns="http://www.w3.org/2000/svg" width="112" height="160" viewBox="0 0 112 160">
  <g stroke="#151719" stroke-width="5" stroke-linejoin="round">
    <ellipse cx="56" cy="34" rx="22" ry="24" fill="#CDA98F"/>
    <path d="M32 28 Q56 3 82 29 L76 13 Q55 -3 34 13Z" fill="#25282C"/>
    <path d="M38 45 Q56 75 74 45 Q73 70 56 81 Q39 70 38 45Z" fill="#E9E4DA"/>
    <path d="M30 68 L82 68 L94 130 L74 151 L38 151 L18 130Z" fill="#25282C"/>
    <path d="M46 69 L56 82 L66 69" fill="none" stroke="#D63C32" stroke-width="7"/>
    <rect x="27" y="112" width="58" height="13" rx="5" fill="#5C524B"/>
    <path d="M39 150 L37 158 M73 150 L75 158" stroke="#151719" stroke-width="11" stroke-linecap="round"/>
  </g>
  <circle cx="48" cy="34" r="2.5" fill="#151719"/><circle cx="64" cy="34" r="2.5" fill="#151719"/>
</svg>
